# xmcd
#
# Track frame offsets:
#	183
#	13415
#	26508
#	34753
#	46190
#	58628
#	77760
#	92333
#	107400
#	129333
#	151585
#	165495
#	178800
#	199955
#	215928
#	249368
#
# Disc length: 3522 seconds
#
# Revision: 0
# Processed by: cddbd v1.5.2PL0 Copyright (c) Steve Scherf et al.
# Submitted via: audiograbber 1.83.01
#
DISCID=c90dc010
DTITLE=Jeff Beck feat. Rod Stewart - The Best of
DYEAR=1900
DGENRE=
TTITLE0=Jeff Beck - Hi-Ho Silver Lining (1967)
TTITLE1=Jeff Beck - Beck's Bolero (1967)
TTITLE2=Jeff Beck - Greensleeves (1968)
TTITLE3=Jeff Beck feat. Rod Stewart - You Shook Me (1968)
TTITLE4=Jeff Beck - Tallyman (1967)
TTITLE5=Jeff Beck feat. Rod Stewart - Rock My Plimsoul (1967)
TTITLE6=Jeff Beck feat. Rod Stewart - Jailhouse Rock (1969)
TTITLE7=Jeff Beck feat. Rod Stewart - Shapes of Things (1968)
TTITLE8=Jeff Beck feat. Rod Stewart - All Shook Up (1969)
TTITLE9=Jeff Beck feat. Rod Stewart - I Ain't Superstitious (1968)
TTITLE10=Jeff Beck feat. Rod Stewart - Plynth (Water Down the Drain) (1969)
TTITLE11=Jeff Beck - Love is Blue (1968)
TTITLE12=Jeff Beck feat. Rod Stewart - Morning Dew (1968)
TTITLE13=Jeff Beck feat. Rod Stewart - Spanish Boots (1969)
TTITLE14=Jeff Beck - Rice Pudding (1969)
TTITLE15=Jeff Beck feat. Rod Stewart - I've Been Drinking (1968)
EXTD=Track dates provided.\nArtist names corrected.
EXTT0=
EXTT1=
EXTT2=
EXTT3=
EXTT4=
EXTT5=
EXTT6=
EXTT7=
EXTT8=
EXTT9=
EXTT10=
EXTT11=
EXTT12=
EXTT13=
EXTT14=
EXTT15=
PLAYORDER=
